<svg xmlns="http://www.w3.org/2000/svg" viewBox="0 0 268.23 276"><defs><linearGradient id="ccg" x1="19.8" y1="138" x2="248.41" y2="138" gradientUnits="userSpaceOnUse"><stop offset=".12" stop-color="#142a47"/><stop offset="1" stop-color="#19476c"/></linearGradient></defs><path fill="url(#ccg)" d="m19.81,189.91v-103.29c0-7.87,5.24-16.78,12.58-20.97L126.25,7.44v57.15l-54.53,33.03c-5.24,3.15-8.39,8.91-8.39,14.16v57.68c0,5.24,2.62,10.49,6.29,12.58l56.63,33.56v52.96l-97-59.77c-5.24-3.67-9.44-11.54-9.44-18.88Z"/><path fill="url(#ccg)" d="m141.98,268.56v-52.96l56.63-33.56c3.67-2.1,6.29-7.34,6.29-12.58v-57.68c0-5.24-3.15-11.01-8.39-14.16l-54.53-33.03V7.44l93.86,58.2c7.34,4.19,12.58,13.11,12.58,20.97v103.29c0,7.34-4.19,15.21-9.44,18.88l-97,59.77Z"/></svg>
